<svg width="21" height="20" viewBox="0 0 21 20" fill="none" xmlns="http://www.w3.org/2000/svg">
<path fill-rule="evenodd" clip-rule="evenodd" d="M4.32857 5.3474L4.93157 12.5194C4.97557 13.0714 5.42657 13.4854 5.97757 13.4854H5.98157H16.8926H16.8946C17.4156 13.4854 17.8606 13.0974 17.9346 12.5824L18.8846 6.0234C18.9066 5.8674 18.8676 5.7114 18.7726 5.5854C18.6786 5.4584 18.5406 5.3764 18.3846 5.3544C18.1756 5.3624 9.50257 5.3504 4.32857 5.3474ZM5.97557 14.9854C4.65857 14.9854 3.54357 13.9574 3.43657 12.6424L2.52057 1.7484L1.01357 1.4884C0.60457 1.4164 0.33157 1.0294 0.40157 0.620395C0.47357 0.211395 0.86857 -0.0546045 1.26857 0.00939549L3.34857 0.369395C3.68357 0.428396 3.93857 0.706396 3.96757 1.0464L4.20257 3.8474C18.4786 3.8534 18.5246 3.8604 18.5936 3.8684C19.1506 3.9494 19.6406 4.2404 19.9746 4.6884C20.3086 5.1354 20.4486 5.6864 20.3686 6.2384L19.4196 12.7964C19.2406 14.0444 18.1566 14.9854 16.8966 14.9854H16.8916H5.98357H5.97557Z" fill="#2F2F2F"/>
<path fill-rule="evenodd" clip-rule="evenodd" d="M15.2876 9.0437H12.5156C12.1006 9.0437 11.7656 8.7077 11.7656 8.2937C11.7656 7.8797 12.1006 7.5437 12.5156 7.5437H15.2876C15.7016 7.5437 16.0376 7.8797 16.0376 8.2937C16.0376 8.7077 15.7016 9.0437 15.2876 9.0437Z" fill="#2F2F2F"/>
<path fill-rule="evenodd" clip-rule="evenodd" d="M5.545 17.7019C5.846 17.7019 6.089 17.9449 6.089 18.2459C6.089 18.5469 5.846 18.7909 5.545 18.7909C5.243 18.7909 5 18.5469 5 18.2459C5 17.9449 5.243 17.7019 5.545 17.7019Z" fill="#2F2F2F"/>
<mask id="mask0_49_73" style="mask-type:alpha" maskUnits="userSpaceOnUse" x="5" y="17" width="2" height="2">
<path fill-rule="evenodd" clip-rule="evenodd" d="M5 18.2455C5 18.5475 5.243 18.7915 5.546 18.7915C5.847 18.7915 6.09 18.5475 6.09 18.2455C6.09 17.9445 5.847 17.7015 5.546 17.7015C5.243 17.7015 5 17.9445 5 18.2455Z" fill="white"/>
</mask>
<g mask="url(#mask0_49_73)">
<path fill-rule="evenodd" clip-rule="evenodd" d="M0.00195312 23.7905H11.091V12.7015H0.00195312V23.7905Z" fill="#2F2F2F"/>
</g>
<path fill-rule="evenodd" clip-rule="evenodd" d="M5.544 18.0408C5.431 18.0408 5.339 18.1328 5.339 18.2458C5.339 18.4728 5.75 18.4728 5.75 18.2458C5.75 18.1328 5.657 18.0408 5.544 18.0408ZM5.544 19.5408C4.83 19.5408 4.25 18.9598 4.25 18.2458C4.25 17.5318 4.83 16.9518 5.544 16.9518C6.258 16.9518 6.839 17.5318 6.839 18.2458C6.839 18.9598 6.258 19.5408 5.544 19.5408Z" fill="#2F2F2F"/>
<path fill-rule="evenodd" clip-rule="evenodd" d="M16.8263 17.7019C17.1273 17.7019 17.3713 17.9449 17.3713 18.2459C17.3713 18.5469 17.1273 18.7909 16.8263 18.7909C16.5243 18.7909 16.2812 18.5469 16.2812 18.2459C16.2812 17.9449 16.5243 17.7019 16.8263 17.7019Z" fill="#2F2F2F"/>
<mask id="mask1_49_73" style="mask-type:alpha" maskUnits="userSpaceOnUse" x="16" y="17" width="2" height="2">
<path fill-rule="evenodd" clip-rule="evenodd" d="M16.2812 18.2455C16.2812 18.5475 16.5243 18.7915 16.8263 18.7915C17.1263 18.7915 17.3713 18.5475 17.3713 18.2455C17.3713 17.9445 17.1263 17.7015 16.8263 17.7015C16.5243 17.7015 16.2812 17.9445 16.2812 18.2455Z" fill="white"/>
</mask>
<g mask="url(#mask1_49_73)">
<path fill-rule="evenodd" clip-rule="evenodd" d="M11.2812 23.7905H22.3713V12.7015H11.2812V23.7905Z" fill="#2F2F2F"/>
</g>
<path fill-rule="evenodd" clip-rule="evenodd" d="M16.8253 18.0408C16.7133 18.0408 16.6213 18.1328 16.6213 18.2458C16.6222 18.4748 17.0323 18.4728 17.0312 18.2458C17.0312 18.1328 16.9382 18.0408 16.8253 18.0408ZM16.8253 19.5408C16.1113 19.5408 15.5312 18.9598 15.5312 18.2458C15.5312 17.5318 16.1113 16.9518 16.8253 16.9518C17.5403 16.9518 18.1212 17.5318 18.1212 18.2458C18.1212 18.9598 17.5403 19.5408 16.8253 19.5408Z" fill="#2F2F2F"/>
</svg>
