<svg width="20" height="20" viewBox="0 0 20 20" fill="none" xmlns="http://www.w3.org/2000/svg">
<path fill-rule="evenodd" clip-rule="evenodd" d="M17.0833 5.83332H2.91667C2.68655 5.83332 2.5 5.64678 2.5 5.41666V4.58332C2.5 4.3532 2.68655 4.16666 2.91667 4.16666H17.0833C17.3135 4.16666 17.5 4.3532 17.5 4.58332V5.41666C17.5 5.64678 17.3135 5.83332 17.0833 5.83332ZM12.5 10.4167V9.58332C12.5 9.3532 12.3135 9.16666 12.0833 9.16666H2.91667C2.68655 9.16666 2.5 9.3532 2.5 9.58332V10.4167C2.5 10.6468 2.68655 10.8333 2.91667 10.8333H12.0833C12.3135 10.8333 12.5 10.6468 12.5 10.4167ZM7.5 14.5833V15.4167C7.5 15.6468 7.31345 15.8333 7.08333 15.8333H2.91667C2.68655 15.8333 2.5 15.6468 2.5 15.4167V14.5833C2.5 14.3532 2.68655 14.1667 2.91667 14.1667H7.08333C7.31345 14.1667 7.5 14.3532 7.5 14.5833Z" fill="black"/>
</svg>
